<svg width="126" height="255" viewBox="0 0 126 255" fill="none" xmlns="http://www.w3.org/2000/svg">
<mask id="mask0_252_15866" style="mask-type:luminance" maskUnits="userSpaceOnUse" x="0" y="0" width="126" height="255">
<path fill-rule="evenodd" clip-rule="evenodd" d="M0.414062 0.792969H126V254.904H0.414062V0.792969Z" fill="white"/>
</mask>
<g mask="url(#mask0_252_15866)">
<path fill-rule="evenodd" clip-rule="evenodd" d="M59.697 111.834C58.388 111.732 57.371 110.647 57.399 109.348C57.417 108.552 57.896 89.6375 64.364 70.5045C73.149 44.5175 88.824 30.9995 109.693 31.4115C111.073 31.4415 112.17 32.5545 112.142 33.9035C112.114 35.2525 110.972 36.3235 109.592 36.2965C64.561 35.4055 62.415 108.711 62.398 109.452C62.368 110.8 61.225 111.87 59.845 111.841C59.796 111.84 59.746 111.838 59.697 111.834" fill="#A4CD49"/>
<path fill-rule="evenodd" clip-rule="evenodd" d="M0.414062 42.772C0.414062 42.772 36.9041 32.999 48.0441 72.827C8.37106 78.662 0.414062 42.772 0.414062 42.772Z" fill="#6EA843"/>
<path fill-rule="evenodd" clip-rule="evenodd" d="M50.5563 74.8807C51.0333 74.0157 50.7763 72.9147 49.9383 72.3577L19.4773 52.0657C18.5953 51.4787 17.4033 51.7177 16.8163 52.5997C16.2243 53.4677 16.4673 54.6737 17.3493 55.2607L47.8113 75.5517C48.6933 76.1397 49.8843 75.9007 50.4723 75.0187C50.5023 74.9737 50.5303 74.9267 50.5563 74.8807" fill="#A4CD49"/>
<path fill-rule="evenodd" clip-rule="evenodd" d="M103.43 63.332C103.43 63.332 75.4581 54.9 65.2031 85.135C95.8081 90.632 103.43 63.332 103.43 63.332Z" fill="#6EA843"/>
<path fill-rule="evenodd" clip-rule="evenodd" d="M65.0182 87.3534C64.3572 87.6014 63.5982 87.3634 63.2252 86.7524C62.8042 86.0614 63.0372 85.1534 63.7472 84.7264L88.2382 69.9624C88.9452 69.5324 89.8642 69.7494 90.2852 70.4404C90.7062 71.1313 90.4732 72.0384 89.7642 72.4663L65.2732 87.2303C65.1902 87.2793 65.1052 87.3203 65.0182 87.3533" fill="#A4CD49"/>
<path fill-rule="evenodd" clip-rule="evenodd" d="M66.1963 0.792969C66.1963 0.792969 54.1933 27.146 83.5763 40.302C92.9273 11.078 66.1963 0.792969 66.1963 0.792969Z" fill="#6EA843"/>
<path fill-rule="evenodd" clip-rule="evenodd" d="M84.2286 42.5263C83.7046 42.4853 83.2186 42.1763 82.9836 41.6763L71.0436 16.2803C70.6976 15.5453 71.0276 14.6753 71.7806 14.3373C72.5337 13.9993 73.4237 14.3223 73.7697 15.0563L85.7096 40.4533C86.0556 41.1883 85.7256 42.0583 84.9726 42.3963C84.7316 42.5053 84.4756 42.5453 84.2286 42.5263Z" fill="#A4CD49"/>
<path fill-rule="evenodd" clip-rule="evenodd" d="M67.7227 203.894C67.7227 203.894 125.385 170.401 124.617 109.233C73.2277 145.441 67.7227 203.894 67.7227 203.894" fill="#6EA843"/>
<path fill-rule="evenodd" clip-rule="evenodd" d="M70.403 201.554C70.403 201.554 11.23 168 20.35 107.496C59.245 140.266 70.403 201.554 70.403 201.554Z" fill="#6EA843"/>
<path fill-rule="evenodd" clip-rule="evenodd" d="M68.4288 244.19C68.3488 244.19 68.2678 244.185 68.1868 244.177C66.8128 244.025 65.8048 242.619 65.9368 241.036C66.0218 240.018 74.0528 138.343 42.5808 58.0559C42.0138 56.6069 42.5728 54.9019 43.8318 54.2479C45.0898 53.5959 46.5708 54.2379 47.1388 55.6879C79.1678 137.395 71.0008 240.554 70.9138 241.587C70.7898 243.076 69.7018 244.19 68.4288 244.19Z" fill="#A4CD49"/>
<path fill-rule="evenodd" clip-rule="evenodd" d="M97.6881 37.5445C97.6881 37.5445 89.2001 12.5145 104.826 7.81445C115.829 24.9135 97.6881 37.5445 97.6881 37.5445Z" fill="#A4CD49"/>
<path fill-rule="evenodd" clip-rule="evenodd" d="M98.9727 32.679C98.9727 32.679 119.262 24.054 126.002 42.433C113.027 54.369 98.9727 32.679 98.9727 32.679Z" fill="#A4CD49"/>
<path fill-rule="evenodd" clip-rule="evenodd" d="M98.416 90.1777C98.416 90.1777 63.663 102.08 65.073 134.024C95.958 128.769 98.416 90.1777 98.416 90.1777" fill="#6EA843"/>
<path fill-rule="evenodd" clip-rule="evenodd" d="M64.7295 136.539C64.4225 136.539 64.1135 136.446 63.8465 136.254C63.1775 135.771 63.0305 134.842 63.5185 134.18L80.5135 111.134C81.0015 110.472 81.9385 110.327 82.6095 110.81C83.2785 111.293 83.4255 112.222 82.9365 112.884L65.9425 135.93C65.6485 136.328 65.1925 136.539 64.7295 136.539" fill="#A4CD49"/>
<path fill-rule="evenodd" clip-rule="evenodd" d="M70.4507 201.484L39.6907 157.287C39.2207 156.612 39.3927 155.688 40.0747 155.223C40.7577 154.757 41.6917 154.928 42.1607 155.604L70.3527 196.11L108.167 137.372C108.612 136.68 109.541 136.478 110.238 136.917C110.937 137.357 111.143 138.275 110.697 138.966L70.4507 201.484Z" fill="#A4CD49"/>
<path fill-rule="evenodd" clip-rule="evenodd" d="M26.8867 87.9186C26.8867 87.9186 33.0257 111.904 57.8327 101.877C48.5917 77.7406 26.8867 87.9186 26.8867 87.9186Z" fill="#A4CD49"/>
<path fill-rule="evenodd" clip-rule="evenodd" d="M36.3242 253.972C36.3242 253.972 45.7052 232.062 66.9682 232.062C88.2322 232.062 99.1172 254.903 99.1172 254.903" fill="#9E7446"/>
</g>
</svg>
