<svg width="71" height="102" viewBox="0 0 71 102" fill="none" xmlns="http://www.w3.org/2000/svg">
<mask id="mask0_252_15826" style="mask-type:luminance" maskUnits="userSpaceOnUse" x="0" y="0" width="71" height="102">
<path fill-rule="evenodd" clip-rule="evenodd" d="M0 0.5H70.488V101.904H0V0.5Z" fill="white"/>
</mask>
<g mask="url(#mask0_252_15826)">
<path fill-rule="evenodd" clip-rule="evenodd" d="M29.338 84.94C29.301 84.925 29.265 84.91 29.229 84.894C27.97 84.328 27.407 82.85 27.971 81.591C28.015 81.494 32.312 71.747 32.422 60.148C32.565 45.022 25.795 33.924 12.302 27.161C11.068 26.543 10.569 25.041 11.187 23.806C11.806 22.572 13.31 22.075 14.543 22.691C51.146 41.038 32.724 83.214 32.533 83.637C31.984 84.861 30.573 85.427 29.338 84.94Z" fill="#A4CD49"/>
<path fill-rule="evenodd" clip-rule="evenodd" d="M70.4884 0.501075C70.4884 0.501075 32.7204 -0.289925 31.3984 41.0461C71.3184 37.2531 70.4884 0.501075 70.4884 0.501075Z" fill="#6EA843"/>
<path fill-rule="evenodd" clip-rule="evenodd" d="M29.4448 43.6397C28.7748 42.9137 28.7628 41.7827 29.4428 41.0417L54.1878 14.0727C54.9048 13.2917 56.1188 13.2397 56.8998 13.9567C57.6818 14.6587 57.7318 15.8877 57.0158 16.6677L32.2708 43.6377C31.5538 44.4177 30.3398 44.4707 29.5588 43.7537C29.5188 43.7177 29.4808 43.6787 29.4448 43.6397Z" fill="#A4CD49"/>
<path fill-rule="evenodd" clip-rule="evenodd" d="M14 56.1508C14 56.1508 18.982 71.9798 36.371 66.7178C29.179 50.6368 14 56.1508 14 56.1508" fill="#A4CD49"/>
<path fill-rule="evenodd" clip-rule="evenodd" d="M0 100.973C0 100.973 9.381 79.0635 30.644 79.0635C51.908 79.0635 62.793 101.904 62.793 101.904" fill="#9E7446"/>
</g>
</svg>