<svg width="88" height="147" viewBox="0 0 88 147" fill="none" xmlns="http://www.w3.org/2000/svg">
<mask id="mask0_252_15835" style="mask-type:luminance" maskUnits="userSpaceOnUse" x="0" y="0" width="88" height="147">
<path fill-rule="evenodd" clip-rule="evenodd" d="M0 0.0839844H87.574V146.904H0V0.0839844Z" fill="white"/>
</mask>
<g mask="url(#mask0_252_15835)">
<path fill-rule="evenodd" clip-rule="evenodd" d="M34.2658 130.524C32.6788 130.669 31.2418 129.622 31.0088 128.118C30.8658 127.196 27.5648 105.285 31.3798 81.9181C36.5618 50.1801 52.5378 31.4391 77.5788 27.7211C79.2348 27.4781 80.7758 28.5411 81.0178 30.1031C81.2608 31.6641 80.1158 33.1291 78.4588 33.3751C24.4248 41.3971 36.8758 126.376 37.0078 127.234C37.2488 128.795 36.1008 130.259 34.4448 130.502C34.3848 130.511 34.3258 130.519 34.2658 130.524" fill="#A4CD49"/>
<path fill-rule="evenodd" clip-rule="evenodd" d="M78.2552 67.2143C78.2552 67.2143 53.3002 50.1783 35.6992 78.7333C63.9482 93.4783 78.2552 67.2143 78.2552 67.2143Z" fill="#6EA843"/>
<path fill-rule="evenodd" clip-rule="evenodd" d="M34.9574 80.9953C34.2544 81.0593 33.5794 80.5873 33.3734 79.8403C33.1404 78.9943 33.5964 78.1153 34.3924 77.8783L61.8594 69.6683C62.6534 69.4273 63.4884 69.9233 63.7214 70.7693C63.9534 71.6143 63.4974 72.4933 62.7024 72.7313L35.2354 80.9413C35.1424 80.9693 35.0494 80.9873 34.9574 80.9953Z" fill="#A4CD49"/>
<path fill-rule="evenodd" clip-rule="evenodd" d="M14.0953 11.1006C14.0953 11.1006 4.41926 41.6546 43.7493 49.8646C49.5373 16.7706 14.0953 11.1006 14.0953 11.1006" fill="#6EA843"/>
<path fill-rule="evenodd" clip-rule="evenodd" d="M45.0091 52.112C44.3471 52.173 43.6781 51.939 43.2841 51.452L23.2631 26.688C22.6831 25.971 22.9191 24.975 23.7911 24.464C24.6641 23.954 25.8401 24.122 26.4191 24.838L46.4401 49.601C47.0201 50.318 46.7841 51.314 45.9121 51.825C45.6321 51.989 45.3211 52.083 45.0091 52.112Z" fill="#A4CD49"/>
<path fill-rule="evenodd" clip-rule="evenodd" d="M7.1626 86.0121C7.1626 86.0121 6.3766 110.758 32.9946 108.039C30.8446 82.2841 7.1626 86.0121 7.1626 86.0121Z" fill="#A4CD49"/>
<path fill-rule="evenodd" clip-rule="evenodd" d="M87.5409 52.3759C87.5409 52.3759 89.2689 32.3719 67.9609 35.3939C68.5259 56.1219 87.5409 52.3759 87.5409 52.3759Z" fill="#A4CD49"/>
<path fill-rule="evenodd" clip-rule="evenodd" d="M71.4629 0.0839844C71.4629 0.0839844 54.9869 12.543 67.8019 31.265C83.7169 16.049 71.4629 0.0839844 71.4629 0.0839844Z" fill="#A4CD49"/>
<path fill-rule="evenodd" clip-rule="evenodd" d="M0 145.973C0 145.973 9.381 124.062 30.644 124.062C51.908 124.062 62.793 146.904 62.793 146.904" fill="#9E7446"/>
</g>
</svg>
