<svg width="1094" height="678" viewBox="0 0 1094 678" fill="none" xmlns="http://www.w3.org/2000/svg">
<path fill-rule="evenodd" clip-rule="evenodd" d="M260 166H1094V678H260V166Z" fill="url(#paint0_linear_1_5851)"/>
<path fill-rule="evenodd" clip-rule="evenodd" d="M0 0H809V412C809 467.228 764.228 512 709 512H0V0Z" fill="url(#paint1_linear_1_5851)"/>
<path opacity="0.06" fill-rule="evenodd" clip-rule="evenodd" d="M645.297 128.63L636.473 125.597C633.247 124.488 629.675 125.596 627.643 128.336L622.085 135.831C618.033 141.295 609.419 139.344 608.117 132.666L606.332 123.508C605.679 120.16 602.933 117.62 599.544 117.23L590.275 116.165C583.516 115.387 580.899 106.952 586.031 102.486L593.07 96.3606C595.643 94.1213 596.47 90.4732 595.113 87.3434L591.401 78.7829C588.695 72.5411 594.692 66.0568 601.126 68.2686L609.949 71.3019C613.175 72.4107 616.748 71.3024 618.78 68.5623L624.338 61.0675C628.39 55.603 637.004 57.5545 638.306 64.2321L640.091 73.3902C640.743 76.7387 643.49 79.2785 646.878 79.6681L656.148 80.7339C662.907 81.5111 665.524 89.9469 660.391 94.4127L653.353 100.538C650.779 102.777 649.953 106.425 651.31 109.555L655.022 118.116C657.728 124.357 651.731 130.841 645.297 128.63" fill="#82C2FD"/>
<path opacity="0.08" fill-rule="evenodd" clip-rule="evenodd" d="M222.443 613.581L214.506 603.432C211.604 599.722 206.633 598.318 202.219 599.963L190.147 604.463C181.344 607.744 172.836 599.006 176.351 590.294L181.171 578.346C182.934 573.977 181.664 568.971 178.032 565.971L168.099 557.765C160.856 551.783 164.17 540.046 173.472 538.733L186.229 536.934C190.894 536.276 194.594 532.673 195.377 528.027L197.516 515.322C199.076 506.059 210.898 503.06 216.685 510.46L224.622 520.608C227.524 524.318 232.495 525.722 236.909 524.077L248.982 519.577C257.784 516.296 266.292 525.035 262.777 533.747L257.957 545.695C256.195 550.063 257.465 555.07 261.096 558.069L271.029 566.275C278.272 572.258 274.959 583.995 265.656 585.307L252.899 587.107C248.234 587.765 244.534 591.368 243.752 596.013L241.612 608.718C240.052 617.981 228.231 620.98 222.443 613.581" fill="#82C2FD"/>
<path opacity="0.04" fill-rule="evenodd" clip-rule="evenodd" d="M192.032 302.172C186.534 301.98 181.483 302.73 177.616 304.119C179.271 300.358 180.371 295.372 180.563 289.874C180.98 277.937 176.962 268.109 171.59 267.922C166.217 267.734 161.524 277.258 161.107 289.194C160.915 294.693 161.664 299.743 163.053 303.611C159.292 301.955 154.306 300.855 148.808 300.663C136.872 300.246 127.043 304.264 126.856 309.637C126.668 315.009 136.192 319.703 148.128 320.12C153.627 320.312 158.677 319.562 162.545 318.173C160.889 321.934 159.789 326.92 159.597 332.419C159.18 344.355 163.198 354.183 168.571 354.371C173.944 354.558 178.637 345.034 179.054 333.098C179.246 327.599 178.496 322.549 177.107 318.682C180.868 320.337 185.854 321.437 191.353 321.629C203.289 322.046 213.117 318.028 213.305 312.655C213.492 307.283 203.968 302.589 192.032 302.172Z" fill="#A960FC"/>
<path opacity="0.04" fill-rule="evenodd" clip-rule="evenodd" d="M1027.39 482.667V517.445H992.611V552.223H957.833V587H992.611H1027.39H1062.17V482.667H1027.39Z" fill="#827DE9"/>
<mask id="mask0_1_5851" style="mask-type:luminance" maskUnits="userSpaceOnUse" x="260" y="-19" width="135" height="135">
<path fill-rule="evenodd" clip-rule="evenodd" d="M260 -19H395V116H260V-19Z" fill="white"/>
</mask>
<g mask="url(#mask0_1_5851)">
<path opacity="0.2" fill-rule="evenodd" clip-rule="evenodd" d="M390.736 54.6704C358.92 66.656 345.656 79.9204 333.67 111.736C331.529 117.421 323.471 117.421 321.33 111.736C309.344 79.9204 296.08 66.656 264.264 54.6704C258.579 52.5286 258.579 44.4713 264.264 42.3296C296.08 30.344 309.344 17.0796 321.33 -14.7363C323.471 -20.4212 331.529 -20.4212 333.67 -14.7363C345.656 17.0796 358.92 30.344 390.736 42.3296C396.421 44.4713 396.421 52.5286 390.736 54.6704Z" fill="white"/>
</g>
<mask id="mask1_1_5851" style="mask-type:luminance" maskUnits="userSpaceOnUse" x="623" y="570" width="86" height="86">
<path fill-rule="evenodd" clip-rule="evenodd" d="M646.791 570.198L708.218 593.778L684.638 655.205L623.211 631.625L646.791 570.198Z" fill="white"/>
</mask>
<g mask="url(#mask1_1_5851)">
<path opacity="0.08" fill-rule="evenodd" clip-rule="evenodd" d="M693.411 626.554C676.84 626.451 668.488 630.17 657.477 642.553C655.51 644.766 651.844 643.358 651.862 640.397C651.965 623.827 648.247 615.475 635.863 604.464C633.651 602.497 635.058 598.83 638.019 598.849C654.589 598.952 662.942 595.234 673.952 582.85C675.92 580.638 679.586 582.045 679.568 585.006C679.464 601.576 683.183 609.928 695.566 620.939C697.779 622.907 696.371 626.573 693.411 626.554Z" fill="#CBED69"/>
</g>
<mask id="mask2_1_5851" style="mask-type:luminance" maskUnits="userSpaceOnUse" x="934" y="139" width="82" height="163">
<path fill-rule="evenodd" clip-rule="evenodd" d="M934 139H1015.33V301.667H934V139Z" fill="white"/>
</mask>
<g mask="url(#mask2_1_5851)">
<path opacity="0.1" fill-rule="evenodd" clip-rule="evenodd" d="M1015.33 301.667C970.414 301.667 934 265.252 934 220.333C934 175.414 970.414 139 1015.33 139" fill="#CBED69"/>
</g>
<defs>
<linearGradient id="paint0_linear_1_5851" x1="643" y1="294" x2="854" y2="601" gradientUnits="userSpaceOnUse">
<stop stop-color="white"/>
<stop offset="0.56651" stop-color="white"/>
<stop offset="1" stop-color="#E9EDFF"/>
</linearGradient>
<linearGradient id="paint1_linear_1_5851" x1="461" y1="493" x2="227" y2="163" gradientUnits="userSpaceOnUse">
<stop stop-color="white"/>
<stop offset="0.404453" stop-color="white"/>
<stop offset="1" stop-color="#EBDEFF"/>
</linearGradient>
</defs>
</svg>
