<svg width="21" height="19" viewBox="0 0 21 19" fill="none" xmlns="http://www.w3.org/2000/svg">
<path fill-rule="evenodd" clip-rule="evenodd" d="M13.3216 1.42126V16.9525C13.3216 18.033 12.0447 18.6063 11.2368 17.8886L6.73461 13.8855C6.59716 13.7631 6.41956 13.6953 6.23548 13.6951H2.54711C1.30203 13.6951 0.292542 12.6861 0.291992 11.441V6.93377C0.291992 5.6883 1.30164 4.67865 2.54711 4.67865H6.23548C6.41956 4.67843 6.59717 4.61067 6.73461 4.48822L11.2358 0.486126C12.0447 -0.233504 13.3216 0.338796 13.3216 1.42125L13.3216 1.42126ZM17.3227 3.07201C17.6564 2.82512 18.1272 2.89557 18.374 3.22937C19.6521 4.95318 20.3406 7.04298 20.3375 9.1889C20.3403 11.3349 19.6514 13.4247 18.373 15.1484C18.1213 15.4667 17.6624 15.5276 17.3363 15.2862C17.0101 15.0448 16.9345 14.5881 17.1653 14.2544C18.252 12.7894 18.8372 11.013 18.8341 9.1889C18.8372 7.36485 18.252 5.58842 17.1653 4.1234C16.9184 3.78962 16.9889 3.31889 17.3227 3.07201ZM15.4694 5.55064C15.8348 5.35281 16.2913 5.48882 16.4888 5.85433C17.026 6.84658 17.3307 7.98416 17.3307 9.1899C17.3323 10.3545 17.0429 11.5011 16.4887 12.5255C16.2911 12.8908 15.8348 13.0268 15.4694 12.8292C15.1041 12.6316 14.9681 12.1752 15.1657 11.8098C15.5867 11.0311 15.8272 10.1401 15.8272 9.1899C15.8272 8.23974 15.5867 7.34872 15.1657 6.56995C14.9679 6.20463 15.1039 5.74811 15.4694 5.55063L15.4694 5.55064Z" fill="#8C59F2"/>
</svg>
