<svg width="30" height="30" viewBox="0 0 30 30" fill="none" xmlns="http://www.w3.org/2000/svg">
<g opacity="0.78">
<path fill-rule="evenodd" clip-rule="evenodd" d="M11.2927 14.6902C10.4401 14.6902 9.74809 15.3822 9.74809 16.2348C9.74809 17.0874 10.4401 17.7794 11.2927 17.7794C12.1453 17.7794 12.8372 17.0874 12.8372 16.2348C12.8372 15.3822 12.1453 14.6902 11.2927 14.6902ZM18.7066 14.6902C17.854 14.6902 17.162 15.3822 17.162 16.2348C17.162 17.0874 17.854 17.7794 18.7066 17.7794C19.5592 17.7794 20.2512 17.0874 20.2512 16.2348C20.2512 15.3822 19.5592 14.6902 18.7066 14.6902ZM14.9996 2.64258C8.17881 2.64258 2.64307 8.17832 2.64307 14.9991C2.64307 21.82 8.17881 27.3557 14.9996 27.3557C21.8204 27.3557 27.3562 21.82 27.3562 14.9991C27.3562 8.17832 21.8204 2.64258 14.9996 2.64258ZM14.9996 24.8844C9.55039 24.8844 5.11439 20.4484 5.11439 14.9991C5.11439 14.6408 5.1391 14.2824 5.17617 13.9365C8.09232 12.639 10.403 10.2542 11.6139 7.301C13.8505 10.4643 17.5327 12.5278 21.6969 12.5278C22.6607 12.5278 23.5874 12.4166 24.4771 12.2065C24.7366 13.0839 24.8849 14.023 24.8849 14.9991C24.8849 20.4484 20.4489 24.8844 14.9996 24.8844H14.9996Z" fill="#252260"/>
</g>
</svg>
