<svg width="27" height="36" viewBox="0 0 27 36" fill="none" xmlns="http://www.w3.org/2000/svg">
<path fill-rule="evenodd" clip-rule="evenodd" d="M24.4167 15.7913H22.2083V9.16634C22.2083 4.30801 18.2333 0.333008 13.375 0.333008C8.51666 0.333008 4.54166 4.30801 4.54166 9.16634V15.7913H2.33333C1.22916 15.7913 0.125 16.8955 0.125 17.9997V33.458C0.125 34.5622 1.22917 35.6663 2.33333 35.6663H24.4167C25.5208 35.6663 26.625 34.5622 26.625 33.458V17.9997C26.625 16.8955 25.5208 15.7913 24.4167 15.7913ZM15.5833 31.2497H11.1667L12.05 26.3913C10.9458 25.9497 10.0625 24.6247 10.0625 23.5205C10.0625 21.7538 11.6083 20.208 13.375 20.208C15.1417 20.208 16.6875 21.7538 16.6875 23.5205C16.6875 24.8455 16.025 25.9497 14.7 26.3913L15.5833 31.2497ZM17.7916 15.7913H8.95832V9.16634C8.95832 6.73718 10.9458 4.74968 13.375 4.74968C15.8041 4.74968 17.7916 6.73718 17.7916 9.16634L17.7916 15.7913Z" fill="#5E5450"/>
</svg>
