<svg width="93" height="86" viewBox="0 0 93 86" fill="none" xmlns="http://www.w3.org/2000/svg">
<path fill-rule="evenodd" clip-rule="evenodd" d="M79.7763 70.3341L65.6927 58.0913L65.8299 62.1322L65.9693 66.1752L61.9463 66.5998L57.9576 67.022L79.7763 70.3341Z" fill="#EBB993"/>
<path fill-rule="evenodd" clip-rule="evenodd" d="M80.5452 69.4501L74.2292 48.3038L74.3662 52.3126L74.5056 56.3556L70.4827 56.7802L66.4616 57.2072L80.5452 69.4501Z" fill="#F5D2B9"/>
<g opacity="0.2">
<path fill-rule="evenodd" clip-rule="evenodd" d="M80.9589 76.4899L66.8754 64.247L67.0125 68.288L67.1519 72.3309L63.129 72.7555L59.1402 73.1778L80.9589 76.4899Z" fill="#EBB993"/>
<path fill-rule="evenodd" clip-rule="evenodd" d="M80.9592 76.4896L74.6432 55.3434L74.7802 59.3522L74.9197 63.3951L70.8967 63.8197L66.8757 64.2468L80.9592 76.4896Z" fill="#F5D2B9"/>
<mask id="mask0_1_6889" style="mask-type:luminance" maskUnits="userSpaceOnUse" x="4" y="7" width="85" height="79">
<path fill-rule="evenodd" clip-rule="evenodd" d="M88.7109 67.5723L73.2082 85.4062L4.45087 25.6364L19.9537 7.80247L88.7109 67.5723Z" fill="white"/>
</mask>
<g mask="url(#mask0_1_6889)">
<path fill-rule="evenodd" clip-rule="evenodd" d="M64.0166 73.5273L67.886 72.9691L67.9002 69.0597L67.9173 65.1521L71.7841 64.5917L75.6534 64.0336L75.6676 60.1242L75.6833 56.2481L27.4726 14.3386C23.321 10.7296 16.7915 11.439 12.8941 15.9226L11.5095 17.5154C7.61204 21.999 7.81824 28.5637 11.9698 32.1727L60.1806 74.0823L64.0166 73.5273Z" fill="#D58E53"/>
<path fill-rule="evenodd" clip-rule="evenodd" d="M75.6681 60.1246L75.6838 56.2485L27.4731 14.339C24.5452 11.7938 20.4353 11.3993 16.8994 12.9587L75.6535 64.0336L75.6681 60.1246Z" fill="#E5A161"/>
<path fill-rule="evenodd" clip-rule="evenodd" d="M67.901 69.0602L67.9178 65.153L12.2024 16.7197L11.5103 17.5159C10.3647 18.8338 9.57653 20.3316 9.136 21.8815L67.8867 72.9535L67.901 69.0602Z" fill="#E5A161"/>
<path fill-rule="evenodd" clip-rule="evenodd" d="M29.6875 16.2642L14.1854 34.0973L11.9813 32.1812L27.4833 14.3481L29.6875 16.2642Z" fill="#5E4E4A"/>
<path fill-rule="evenodd" clip-rule="evenodd" d="M27.474 14.3399C23.3211 10.7299 16.7941 11.439 12.8955 15.9239L11.5116 17.5159C7.61301 22.0008 7.81915 28.5631 11.972 32.1732L11.9813 32.1812L27.4833 14.348L27.474 14.3399Z" fill="#E44E5C"/>
<path fill-rule="evenodd" clip-rule="evenodd" d="M17.3623 25.9911L27.4833 14.3481L27.474 14.34C23.7576 11.1093 18.141 11.3403 14.2075 14.6385C13.9995 18.6922 15.0587 22.6918 17.3623 25.9911" fill="#E9686D"/>
<path fill-rule="evenodd" clip-rule="evenodd" d="M80.9598 76.489L79.9339 72.5536L77.1474 73.1749L76.92 76.0207L80.9598 76.489Z" fill="#3F332E"/>
</g>
</g>
<mask id="mask1_1_6889" style="mask-type:luminance" maskUnits="userSpaceOnUse" x="3" y="0" width="86" height="79">
<path fill-rule="evenodd" clip-rule="evenodd" d="M88.2969 60.5327L72.7941 78.3666L3.84288 18.4283L19.3457 0.594341L88.2969 60.5327Z" fill="white"/>
</mask>
<g mask="url(#mask1_1_6889)">
<path fill-rule="evenodd" clip-rule="evenodd" d="M63.5718 66.461L67.4465 65.9076L67.4553 61.9935L67.467 58.0811L71.3392 57.5255L75.214 56.972L75.2228 53.0579L75.233 49.1772L26.8863 7.14944C22.723 3.53025 16.1841 4.23145 12.2867 8.71499L10.902 10.3079C7.00459 14.7914 7.22028 21.3644 11.3836 24.9836L59.7303 67.0113L63.5718 66.461Z" fill="#D58E53"/>
<path fill-rule="evenodd" clip-rule="evenodd" d="M75.2223 53.0574L75.2325 49.1766L26.8858 7.14888C23.9497 4.59647 19.8326 4.19583 16.2933 5.75217L75.213 56.9711L75.2223 53.0574Z" fill="#E5A161"/>
<path fill-rule="evenodd" clip-rule="evenodd" d="M67.4552 61.993L67.4665 58.0811L11.594 9.51115L10.9019 10.3074C9.75629 11.6252 8.96893 13.1238 8.52987 14.675L67.4463 65.891L67.4552 61.993Z" fill="#E5A161"/>
<path fill-rule="evenodd" clip-rule="evenodd" d="M29.1064 9.08008L13.6044 26.9132L11.394 24.9917L26.8961 7.15862L29.1064 9.08008Z" fill="#5E4E4A"/>
<path fill-rule="evenodd" clip-rule="evenodd" d="M26.887 7.14998C22.7224 3.52971 16.1859 4.23061 12.2873 8.71552L10.9035 10.3075C7.00486 14.7924 7.2205 21.3629 11.3851 24.9832L11.3944 24.9913L26.8964 7.15809L26.887 7.14998Z" fill="#E44E5C"/>
<path fill-rule="evenodd" clip-rule="evenodd" d="M16.7754 18.8012L26.8964 7.15813L26.8871 7.15002C23.1602 3.91027 17.5349 4.13367 13.5997 7.43033C13.397 11.4887 14.4635 15.4946 16.7754 18.8012" fill="#E9686D"/>
<path fill-rule="evenodd" clip-rule="evenodd" d="M80.5458 69.4494L79.5127 65.5078L76.7226 66.126L76.4988 68.975L80.5458 69.4494Z" fill="#3F332E"/>
</g>
</svg>
