<svg width="114" height="114" viewBox="0 0 114 114" fill="none" xmlns="http://www.w3.org/2000/svg">
<path opacity="0.15" fill-rule="evenodd" clip-rule="evenodd" d="M57 114C88.4802 114 114 88.4802 114 57C114 25.5198 88.4802 0 57 0C25.5198 0 0 25.5198 0 57C0 88.4802 25.5198 114 57 114Z" fill="#A960FC"/>
<path fill-rule="evenodd" clip-rule="evenodd" d="M59 94C78.33 94 94 78.33 94 59C94 39.67 78.33 24 59 24C39.67 24 24 39.67 24 59C24 78.33 39.67 94 59 94Z" fill="white"/>
<path fill-rule="evenodd" clip-rule="evenodd" d="M52.963 19.3512V14.7407H48.5926V6H66.0741V14.7407H61.7037V19.3512C69.2885 20.1896 76.2234 23.1847 81.8812 27.7097L89.199 20.3595L95.3935 26.5266L88.0627 33.8896C93.447 40.6191 96.6666 49.1556 96.6666 58.4444C96.6666 80.1678 79.0567 97.7777 57.3333 97.7777C35.6101 97.7777 18 80.1678 18 58.4444C18 38.1985 33.2965 21.5252 52.963 19.3512ZM57.3333 89.037C74.2292 89.037 87.9259 75.3403 87.9259 58.4444C87.9259 41.5486 74.2292 27.8518 57.3333 27.8518C40.4375 27.8518 26.7407 41.5486 26.7407 58.4444C26.7407 75.3403 40.4375 89.037 57.3333 89.037Z" fill="#8D36EF"/>
<path d="M50.0156 70L49.9844 66.5938L58.1094 59.125C60.2188 57.1094 61.3594 55.8594 61.3594 54.0625C61.3594 52.0469 59.8438 50.7969 57.7656 50.8125C55.6406 50.7969 54.25 52.1406 54.2656 54.3125H49.7969C49.7812 49.8906 53.0625 47.0625 57.8281 47.0625C62.6719 47.0625 65.8906 49.8281 65.8906 53.75C65.8906 56.3281 64.6406 58.4375 59.9844 62.6562L56.5469 66V66.125H66.2031V70H50.0156Z" fill="#8D36EF"/>
</svg>
