<svg width="114" height="114" viewBox="0 0 114 114" fill="none" xmlns="http://www.w3.org/2000/svg">
<path opacity="0.15" fill-rule="evenodd" clip-rule="evenodd" d="M57 114C88.4802 114 114 88.4802 114 57C114 25.5198 88.4802 0 57 0C25.5198 0 0 25.5198 0 57C0 88.4802 25.5198 114 57 114Z" fill="#A960FC"/>
<path fill-rule="evenodd" clip-rule="evenodd" d="M59 94C78.33 94 94 78.33 94 59C94 39.67 78.33 24 59 24C39.67 24 24 39.67 24 59C24 78.33 39.67 94 59 94Z" fill="white"/>
<path fill-rule="evenodd" clip-rule="evenodd" d="M52.963 19.3512V14.7407H48.5926V6H66.0741V14.7407H61.7037V19.3512C69.2885 20.1896 76.2234 23.1847 81.8812 27.7097L89.199 20.3595L95.3935 26.5266L88.0627 33.8896C93.447 40.6191 96.6666 49.1556 96.6666 58.4444C96.6666 80.1678 79.0567 97.7777 57.3333 97.7777C35.6101 97.7777 18 80.1678 18 58.4444C18 38.1985 33.2965 21.5252 52.963 19.3512ZM57.3333 89.037C74.2292 89.037 87.9259 75.3403 87.9259 58.4444C87.9259 41.5486 74.2292 27.8518 57.3333 27.8518C40.4375 27.8518 26.7407 41.5486 26.7407 58.4444C26.7407 75.3403 40.4375 89.037 57.3333 89.037Z" fill="#8D36EF"/>
<path d="M58.4375 70.3125C53.4688 70.3125 49.9062 67.5781 49.8125 63.625H54.5625C54.6406 65.3125 56.2812 66.4219 58.4688 66.4375C60.7188 66.4219 62.3281 65.1719 62.3125 63.3438C62.3281 61.5 60.6875 60.2031 58.0312 60.1875H55.9375V56.7188H58.0312C60.2656 56.7188 61.8281 55.5 61.8125 53.7188C61.8281 51.9844 60.5 50.7969 58.5 50.8125C56.5 50.7969 54.8594 51.9219 54.7812 53.6562H50.2812C50.3594 49.7656 53.8594 47.0625 58.5 47.0625C63.2188 47.0625 66.3594 49.8594 66.3438 53.4375C66.3594 55.9688 64.5938 57.7656 62.0625 58.2188V58.4062C65.3906 58.8125 67.2188 60.8281 67.1875 63.6562C67.2188 67.5312 63.5469 70.3125 58.4375 70.3125Z" fill="#8D36EF"/>
</svg>
