<svg width="114" height="114" viewBox="0 0 114 114" fill="none" xmlns="http://www.w3.org/2000/svg">
<path opacity="0.15" fill-rule="evenodd" clip-rule="evenodd" d="M57 114C88.4802 114 114 88.4802 114 57C114 25.5198 88.4802 0 57 0C25.5198 0 0 25.5198 0 57C0 88.4802 25.5198 114 57 114Z" fill="#A960FC"/>
<path fill-rule="evenodd" clip-rule="evenodd" d="M59 94C78.33 94 94 78.33 94 59C94 39.67 78.33 24 59 24C39.67 24 24 39.67 24 59C24 78.33 39.67 94 59 94Z" fill="white"/>
<path fill-rule="evenodd" clip-rule="evenodd" d="M52.963 19.3512V14.7407H48.5926V6H66.0741V14.7407H61.7037V19.3512C69.2885 20.1896 76.2234 23.1847 81.8812 27.7097L89.199 20.3595L95.3935 26.5266L88.0627 33.8896C93.447 40.6191 96.6666 49.1556 96.6666 58.4444C96.6666 80.1678 79.0567 97.7777 57.3333 97.7777C35.6101 97.7777 18 80.1678 18 58.4444C18 38.1985 33.2965 21.5252 52.963 19.3512ZM57.3333 89.037C74.2292 89.037 87.9259 75.3403 87.9259 58.4444C87.9259 41.5486 74.2292 27.8518 57.3333 27.8518C40.4375 27.8518 26.7407 41.5486 26.7407 58.4444C26.7407 75.3403 40.4375 89.037 57.3333 89.037Z" fill="#8D36EF"/>
<path d="M61.5312 47.375V70H56.8125V51.8438H56.6875L51.5 55.0938V50.9375L57.0938 47.375H61.5312Z" fill="#8D36EF"/>
</svg>
