<svg width="120" height="190" viewBox="0 0 120 190" fill="none" xmlns="http://www.w3.org/2000/svg">
<mask id="mask0_252_15848" style="mask-type:luminance" maskUnits="userSpaceOnUse" x="0" y="0" width="120" height="190">
<path fill-rule="evenodd" clip-rule="evenodd" d="M0.152344 0.739258H119.847V189.904H0.152344V0.739258Z" fill="white"/>
</mask>
<g mask="url(#mask0_252_15848)">
<path fill-rule="evenodd" clip-rule="evenodd" d="M76.3129 184.835C76.1869 184.835 76.0589 184.825 75.9309 184.804C74.6269 184.593 73.7389 183.355 73.9479 182.039C73.9759 181.857 76.7939 163.538 73.3169 139.307C70.1239 117.053 60.8039 85.0873 34.5439 59.1713C33.5989 58.2393 33.5829 56.7113 34.5059 55.7583C35.4309 54.8053 36.9449 54.7883 37.8899 55.7203C65.1539 82.6263 74.7919 115.739 78.0759 138.779C81.6289 163.703 78.7939 182.036 78.6719 182.804C78.4829 183.991 77.4669 184.835 76.3129 184.835Z" fill="#A4CD49"/>
<path fill-rule="evenodd" clip-rule="evenodd" d="M71.0882 119.749C69.8912 119.749 68.8582 118.845 68.7152 117.616C68.6262 116.849 66.5682 98.5642 70.1762 76.1522C74.9892 46.2512 87.7642 23.5432 107.12 10.4862C108.219 9.74524 109.705 10.0442 110.439 11.1512C111.173 12.2602 110.878 13.7592 109.78 14.4992C65.5942 44.3072 73.3842 116.33 73.4672 117.054C73.6212 118.378 72.6822 119.577 71.3702 119.732C71.2752 119.743 71.1812 119.749 71.0882 119.749Z" fill="#A4CD49"/>
<path fill-rule="evenodd" clip-rule="evenodd" d="M66.1571 49.4551C66.1571 49.4551 44.3761 60.3451 55.2391 86.0251C76.9601 71.6831 66.1571 49.4551 66.1571 49.4551Z" fill="#A4CD49"/>
<path fill-rule="evenodd" clip-rule="evenodd" d="M22.8086 80.3037C22.8086 80.3037 36.5866 101.405 58.3126 85.4977C41.3716 65.0567 22.8086 80.3037 22.8086 80.3037Z" fill="#A4CD49"/>
<path fill-rule="evenodd" clip-rule="evenodd" d="M95.8993 107.906C95.8993 107.906 72.5203 104.67 74.3523 130.164C98.7663 130.719 95.8993 107.906 95.8993 107.906Z" fill="#A4CD49"/>
<path fill-rule="evenodd" clip-rule="evenodd" d="M119.849 21.5842C119.849 21.5842 107.301 11.7622 96.4922 25.5032C110.916 34.3092 119.849 21.5842 119.849 21.5842Z" fill="#A4CD49"/>
<path fill-rule="evenodd" clip-rule="evenodd" d="M92.2334 0.739258C92.2334 0.739258 82.3034 13.2443 95.7514 24.3643C104.704 9.95026 92.2334 0.739258 92.2334 0.739258Z" fill="#A4CD49"/>
<path fill-rule="evenodd" clip-rule="evenodd" d="M49.1055 18.2715C49.1055 18.2715 49.2285 46.7775 80.1595 46.9865C76.5685 16.9435 49.1055 18.2715 49.1055 18.2715Z" fill="#6EA843"/>
<path fill-rule="evenodd" clip-rule="evenodd" d="M81.1333 48.8171C80.7983 48.8171 80.4623 48.7001 80.1903 48.4601L59.5583 30.3071C58.9603 29.7821 58.8993 28.8671 59.4203 28.2641C59.9403 27.6591 60.8483 27.5981 61.4453 28.1241L82.0773 46.2771C82.6753 46.8031 82.7363 47.7181 82.2153 48.3211C81.9323 48.6491 81.5333 48.8171 81.1333 48.8171Z" fill="#A4CD49"/>
<path fill-rule="evenodd" clip-rule="evenodd" d="M0.235866 24.8741C0.235866 24.8741 -3.36013 57.4031 36.6389 58.3621C35.9499 23.9991 0.235866 24.8741 0.235866 24.8741Z" fill="#6EA843"/>
<path fill-rule="evenodd" clip-rule="evenodd" d="M38.3015 60.3888C37.6665 60.5728 36.9675 60.4618 36.4895 60.0448L12.1825 38.8518C11.4785 38.2378 11.5185 37.1928 12.2725 36.5168C13.0265 35.8408 14.2085 35.7918 14.9115 36.4048L39.2185 57.5978C39.9225 58.2118 39.8825 59.2568 39.1285 59.9328C38.8865 60.1498 38.6015 60.3018 38.3015 60.3888Z" fill="#A4CD49"/>
<path fill-rule="evenodd" clip-rule="evenodd" d="M76.1847 155.081C76.1847 155.081 21.2997 137.456 22.0307 105.267C70.9437 124.321 76.1847 155.081 76.1847 155.081Z" fill="#6EA843"/>
<path fill-rule="evenodd" clip-rule="evenodd" d="M46.3789 188.973C46.3789 188.973 55.7599 167.063 77.0229 167.063C98.2869 167.063 109.172 189.904 109.172 189.904" fill="#9E7446"/>
<path fill-rule="evenodd" clip-rule="evenodd" d="M77.3806 154.746C77.7906 154.621 78.1646 154.364 78.4416 153.985C79.1326 153.032 78.9376 151.666 78.0046 150.934L45.5536 125.452C44.6216 124.719 43.3066 124.898 42.6126 125.851C41.9216 126.804 42.1166 128.17 43.0496 128.902L75.5006 154.384C76.0616 154.824 76.7616 154.935 77.3806 154.746Z" fill="#A4CD49"/>
</g>
</svg>
