<svg width="512" height="512" viewBox="0 0 512 512" fill="none" xmlns="http://www.w3.org/2000/svg">
<g clip-path="url(#clip0_191_8636)">
<rect width="512" height="512" fill="white"/>
<path d="M-1 0H512V512H-1V0Z" fill="white"/>
<rect width="511.626" height="511.626" fill="white"/>
<rect width="512" height="512" fill="white"/>
<path fill-rule="evenodd" clip-rule="evenodd" d="M173.699 300.302C173.822 300.181 173.941 299.942 174.064 299.763L206.707 265.447C211.808 260.056 211.808 251.374 206.766 245.983C206.766 245.925 173.575 211.186 173.575 211.128C159.356 197.055 164.457 169.623 182.693 162.258L170.6 149.561C148.836 126.383 111.94 127.642 91.519 152.376C72.4295 175.194 74.862 210.107 95.3477 231.55L112.547 249.634C115.71 252.988 115.71 258.559 112.547 261.913L96.9858 278.203C65.5615 310.122 80.8814 368.218 124.039 375.884C125.923 359.113 133.033 343.183 144.584 331.083L173.699 300.302Z" fill="#82C2FD"/>
<path fill-rule="evenodd" clip-rule="evenodd" d="M213.819 169.327L246.58 203.705C249.072 206.34 252.294 207.716 255.821 207.716C259.285 207.716 262.63 206.277 265.122 203.705L298.248 168.845C311.684 153.936 337.7 159.084 344.687 178.49L356.785 165.792C390.459 131.419 366.268 68.053 319.223 69.0107C304.569 69.0107 289.861 75.0629 278.858 86.6813L261.658 104.707C258.496 108.061 253.207 108.061 250.049 104.707L234.487 88.4167C214.184 67.0371 181.057 64.3392 159.235 84.4062C150.057 92.8501 144.344 103.807 141.971 115.309C157.35 117.584 171.574 124.949 182.695 136.625L213.819 169.327Z" fill="#CBED69"/>
<path fill-rule="evenodd" clip-rule="evenodd" d="M286.081 244.848C287.601 240.477 289.91 236.404 293.191 232.928L325.958 198.613C336.171 187.772 321.64 172.022 311.185 182.323L278.059 217.061C269.548 225.801 256.784 228.976 245.722 224.547C241.587 222.928 237.576 220.532 234.295 217.061L201.528 182.741C197.823 178.788 191.744 177.773 187.304 181.064C181.773 185.2 181.349 193.343 185.967 198.136L219.098 232.928C222.438 236.404 224.748 240.536 226.208 244.906C228.64 251.974 228.64 259.762 226.208 266.825V266.888C224.688 271.259 222.438 275.332 219.098 278.803L186.514 313.002C176.301 323.901 190.526 339.714 201.104 329.413L223.169 306.293L234.231 294.733C242.682 285.93 255.506 282.818 266.568 287.247C270.761 288.807 274.654 291.262 277.935 294.733L311.126 329.472C315.562 334.022 322.736 333.905 326.87 328.81C330.576 324.26 329.604 317.314 325.716 313.123L293.132 278.925C289.851 275.449 287.542 271.38 286.022 267.005C283.59 259.879 283.59 252.212 286.022 245.086L286.081 244.848Z" fill="#19146A"/>
<path fill-rule="evenodd" clip-rule="evenodd" d="M399.872 261.676C396.71 258.322 396.71 252.751 399.872 249.397L417.072 231.313C448.501 199.39 433.181 141.361 389.965 133.695C388.08 150.525 380.97 166.513 369.42 178.608L305.471 245.868C300.429 251.254 300.429 259.941 305.471 265.332L338.114 299.584C352.398 314.318 348.086 341.269 329.544 348.935L340.058 359.955C361.881 383.129 398.777 381.991 419.204 357.199C438.229 334.38 435.796 299.467 415.375 278.025L399.872 261.676Z" fill="#A960FC"/>
<path fill-rule="evenodd" clip-rule="evenodd" d="M298.67 343.177C298.547 343.055 298.305 342.938 298.182 342.817L265.055 308.02C262.563 305.386 259.342 304.01 255.819 304.01C247.915 303.47 240.805 314.85 235.516 319.702L213.451 342.817C200.199 357.789 173.999 352.52 167.131 333.294L156.617 344.314C107.5 400.792 181.538 476.131 234.479 423.367L249.982 407.077C253.14 403.723 258.429 403.723 261.592 407.077L278.791 425.102C299.094 446.424 332.162 449.122 353.984 429.118C363.951 419.954 369.847 407.855 371.732 395.279C354.956 393.723 339.395 386.116 327.361 373.418L298.67 343.177Z" fill="#19146A"/>
</g>
<defs>
<clipPath id="clip0_191_8636">
<rect width="512" height="512" fill="white"/>
</clipPath>
</defs>
</svg>
